<svg width="35" height="184" viewBox="0 0 35 184" fill="none" xmlns="http://www.w3.org/2000/svg">
<path d="M33.4502 167.272C33.4502 176.385 26.0629 183.772 16.9502 183.772C7.83753 183.772 0.450231 176.385 0.450231 167.272C0.450231 158.159 7.83753 150.772 16.9502 150.772C26.0629 150.772 33.4502 158.159 33.4502 167.272Z" fill="#C86363"/>
<path d="M0.0195565 17.5964C-0.321828 10.5061 3.83289 3.96734 10.3967 1.26458C14.2897 -0.338387 18.6427 -0.420272 22.5932 1.03516L22.9777 1.17682C30.3785 3.90344 35.1106 11.1662 34.615 19.0378L27.0092 139.835C26.9761 140.362 26.5391 140.772 26.0112 140.772H6.90324C6.36965 140.772 5.93006 140.353 5.9044 139.82L0.0195565 17.5964Z" fill="#C86363"/>
</svg>
